<svg id="visual" viewBox="0 0 540 960" width="540" height="960" xmlns="http://www.w3.org/2000/svg" xmlns:xlink="http://www.w3.org/1999/xlink" version="1.1"><rect x="0" y="0" width="540" height="960" fill="#171837"></rect><defs><linearGradient id="grad1_0" x1="0%" y1="0%" x2="100%" y2="100%"><stop offset="30%" stop-color="#272057" stop-opacity="1"></stop><stop offset="70%" stop-color="#272057" stop-opacity="1"></stop></linearGradient></defs><defs><linearGradient id="grad1_1" x1="0%" y1="0%" x2="100%" y2="100%"><stop offset="30%" stop-color="#272057" stop-opacity="1"></stop><stop offset="70%" stop-color="#241f52" stop-opacity="1"></stop></linearGradient></defs><defs><linearGradient id="grad1_2" x1="0%" y1="0%" x2="100%" y2="100%"><stop offset="30%" stop-color="#211e4c" stop-opacity="1"></stop><stop offset="70%" stop-color="#241f52" stop-opacity="1"></stop></linearGradient></defs><defs><linearGradient id="grad1_3" x1="0%" y1="0%" x2="100%" y2="100%"><stop offset="30%" stop-color="#211e4c" stop-opacity="1"></stop><stop offset="70%" stop-color="#1e1c47" stop-opacity="1"></stop></linearGradient></defs><defs><linearGradient id="grad1_4" x1="0%" y1="0%" x2="100%" y2="100%"><stop offset="30%" stop-color="#1b1b42" stop-opacity="1"></stop><stop offset="70%" stop-color="#1e1c47" stop-opacity="1"></stop></linearGradient></defs><defs><linearGradient id="grad1_5" x1="0%" y1="0%" x2="100%" y2="100%"><stop offset="30%" stop-color="#1b1b42" stop-opacity="1"></stop><stop offset="70%" stop-color="#19193c" stop-opacity="1"></stop></linearGradient></defs><defs><linearGradient id="grad1_6" x1="0%" y1="0%" x2="100%" y2="100%"><stop offset="30%" stop-color="#171837" stop-opacity="1"></stop><stop offset="70%" stop-color="#19193c" stop-opacity="1"></stop></linearGradient></defs><defs><linearGradient id="grad2_0" x1="0%" y1="0%" x2="100%" y2="100%"><stop offset="30%" stop-color="#272057" stop-opacity="1"></stop><stop offset="70%" stop-color="#272057" stop-opacity="1"></stop></linearGradient></defs><defs><linearGradient id="grad2_1" x1="0%" y1="0%" x2="100%" y2="100%"><stop offset="30%" stop-color="#241f52" stop-opacity="1"></stop><stop offset="70%" stop-color="#272057" stop-opacity="1"></stop></linearGradient></defs><defs><linearGradient id="grad2_2" x1="0%" y1="0%" x2="100%" y2="100%"><stop offset="30%" stop-color="#241f52" stop-opacity="1"></stop><stop offset="70%" stop-color="#211e4c" stop-opacity="1"></stop></linearGradient></defs><defs><linearGradient id="grad2_3" x1="0%" y1="0%" x2="100%" y2="100%"><stop offset="30%" stop-color="#1e1c47" stop-opacity="1"></stop><stop offset="70%" stop-color="#211e4c" stop-opacity="1"></stop></linearGradient></defs><defs><linearGradient id="grad2_4" x1="0%" y1="0%" x2="100%" y2="100%"><stop offset="30%" stop-color="#1e1c47" stop-opacity="1"></stop><stop offset="70%" stop-color="#1b1b42" stop-opacity="1"></stop></linearGradient></defs><defs><linearGradient id="grad2_5" x1="0%" y1="0%" x2="100%" y2="100%"><stop offset="30%" stop-color="#19193c" stop-opacity="1"></stop><stop offset="70%" stop-color="#1b1b42" stop-opacity="1"></stop></linearGradient></defs><defs><linearGradient id="grad2_6" x1="0%" y1="0%" x2="100%" y2="100%"><stop offset="30%" stop-color="#19193c" stop-opacity="1"></stop><stop offset="70%" stop-color="#171837" stop-opacity="1"></stop></linearGradient></defs><g transform="translate(540, 0)"><path d="M0 513C-49.8 495.3 -99.5 477.6 -150.8 464.1C-202.1 450.7 -254.9 441.5 -301.5 415C-348.2 388.6 -388.6 344.9 -406.9 295.7C-425.3 246.4 -421.6 191.7 -435.6 141.5C-449.6 91.3 -481.3 45.7 -513 0L0 0Z" fill="#18193a"></path><path d="M0 439.7C-42.6 424.5 -85.3 409.3 -129.3 397.8C-173.2 386.3 -218.5 378.4 -258.5 355.7C-298.4 333.1 -333.1 295.6 -348.8 253.4C-364.5 211.2 -361.4 164.3 -373.4 121.3C-385.4 78.3 -412.5 39.1 -439.7 0L0 0Z" fill="#1a1a3f"></path><path d="M0 366.4C-35.5 353.8 -71.1 341.1 -107.7 331.5C-144.3 321.9 -182.1 315.3 -215.4 296.4C-248.7 277.6 -277.6 246.3 -290.7 211.2C-303.8 176 -301.1 136.9 -311.1 101.1C-321.1 65.2 -343.8 32.6 -366.4 0L0 0Z" fill="#1d1c44"></path><path d="M0 293.1C-28.4 283 -56.9 272.9 -86.2 265.2C-115.5 257.5 -145.7 252.3 -172.3 237.2C-198.9 222 -222 197.1 -232.5 168.9C-243 140.8 -240.9 109.6 -248.9 80.9C-256.9 52.2 -275 26.1 -293.1 0L0 0Z" fill="#1f1d4a"></path><path d="M0 219.9C-21.3 212.3 -42.6 204.7 -64.6 198.9C-86.6 193.1 -109.2 189.2 -129.2 177.9C-149.2 166.5 -166.5 147.8 -174.4 126.7C-182.3 105.6 -180.7 82.2 -186.7 60.7C-192.7 39.1 -206.3 19.6 -219.9 0L0 0Z" fill="#221e4f"></path><path d="M0 146.6C-14.2 141.5 -28.4 136.4 -43.1 132.6C-57.7 128.8 -72.8 126.1 -86.2 118.6C-99.5 111 -111 98.5 -116.3 84.5C-121.5 70.4 -120.5 54.8 -124.5 40.4C-128.5 26.1 -137.5 13 -146.6 0L0 0Z" fill="#251f54"></path><path d="M0 73.3C-7.1 70.8 -14.2 68.2 -21.5 66.3C-28.9 64.4 -36.4 63.1 -43.1 59.3C-49.7 55.5 -55.5 49.3 -58.1 42.2C-60.8 35.2 -60.2 27.4 -62.2 20.2C-64.2 13 -68.8 6.5 -73.3 0L0 0Z" fill="#272057"></path></g><g transform="translate(0, 960)"><path d="M0 -513C57.1 -513.6 114.3 -514.1 158.5 -487.9C202.8 -461.7 234.2 -408.6 267.4 -368.1C300.7 -327.6 335.8 -299.5 364.1 -264.5C392.3 -229.5 413.8 -187.4 437.5 -142.1C461.2 -96.9 487.1 -48.4 513 0L0 0Z" fill="#18193a"></path><path d="M0 -439.7C49 -440.2 97.9 -440.7 135.9 -418.2C173.8 -395.7 200.7 -350.3 229.2 -315.5C257.7 -280.8 287.8 -256.8 312 -226.7C336.3 -196.7 354.7 -160.6 375 -121.8C395.3 -83.1 417.5 -41.5 439.7 0L0 0Z" fill="#1a1a3f"></path><path d="M0 -366.4C40.8 -366.8 81.6 -367.2 113.2 -348.5C144.9 -329.8 167.3 -291.9 191 -262.9C214.8 -234 239.8 -214 260 -188.9C280.2 -163.9 295.6 -133.9 312.5 -101.5C329.4 -69.2 347.9 -34.6 366.4 0L0 0Z" fill="#1d1c44"></path><path d="M0 -293.1C32.6 -293.5 65.3 -293.8 90.6 -278.8C115.9 -263.8 133.8 -233.5 152.8 -210.3C171.8 -187.2 191.9 -171.2 208 -151.1C224.2 -131.1 236.5 -107.1 250 -81.2C263.5 -55.4 278.3 -27.7 293.1 0L0 0Z" fill="#1f1d4a"></path><path d="M0 -219.9C24.5 -220.1 49 -220.3 67.9 -209.1C86.9 -197.9 100.4 -175.1 114.6 -157.8C128.9 -140.4 143.9 -128.4 156 -113.4C168.1 -98.3 177.3 -80.3 187.5 -60.9C197.6 -41.5 208.8 -20.8 219.9 0L0 0Z" fill="#221e4f"></path><path d="M0 -146.6C16.3 -146.7 32.6 -146.9 45.3 -139.4C57.9 -131.9 66.9 -116.8 76.4 -105.2C85.9 -93.6 95.9 -85.6 104 -75.6C112.1 -65.6 118.2 -53.5 125 -40.6C131.8 -27.7 139.2 -13.8 146.6 0L0 0Z" fill="#251f54"></path><path d="M0 -73.3C8.2 -73.4 16.3 -73.4 22.6 -69.7C29 -66 33.5 -58.4 38.2 -52.6C43 -46.8 48 -42.8 52 -37.8C56 -32.8 59.1 -26.8 62.5 -20.3C65.9 -13.8 69.6 -6.9 73.3 0L0 0Z" fill="#272057"></path></g></svg>